<?xml version="1.0" encoding="utf-8"?>
<!-- Generator: Adobe Illustrator 25.2.0, SVG Export Plug-In . SVG Version: 6.00 Build 0)  -->
<svg version="1.1" id="Livello_1" xmlns="http://www.w3.org/2000/svg" xmlns:xlink="http://www.w3.org/1999/xlink"
	width="311" height="122" viewBox="0 0 311.81 121.89" style="enable-background:new 0 0 311.81 121.89;"
	xml:space="preserve">
	<style type="text/css">
		.st0 {
			fill: #003E7E;
		}

		.st1 {
			fill: #F58025;
		}
	</style>
	<g>
		<path class="st0" d="M50.1,72.88l-14.34,19.4c0,0-2.57,4.33-2.75,8.18c-0.18,3.85,2.86,6.89,6.71,7.26c3.85,0.37,47.87,0,47.87,0
		l9.73-14.16H58.27c0,0-1.48,0.19-1.9-1.31c-0.42-1.48,0.43-2.29,0.43-2.29l12.14-17.09H50.1L50.1,72.88z" />
		<path class="st0" d="M130.62,45.07l-10.4,15.26H60.25c0,0,3.3-5.18,9.83-9.94c6.53-4.77,13.79-5.5,13.79-5.5L130.62,45.07
		L130.62,45.07z" />
		<polygon class="st0" points="118.53,73.11 136.45,73.11 114.03,107.6 95.04,107.6 118.53,73.11 	" />
		<path class="st0" d="M127.65,60.12h37.48c0,0,1.62-0.25,2.87,1c1.25,1.25,1.12,2.5,1.12,3.12c0,0.62-2.12,4.25-3.5,5.87
		c-1.37,1.62-4,2.75-5,3c-1,0.25-2.12,0.25-2.12,0.25h-17.11l7.07,34.24h18.36l-4.45-21.75c0,0,9.07-1.93,14.87-6.87
		c4.32-3.69,10.49-17.49,10.49-17.49s1-3.12,1.25-6.12c0.25-3-1.53-6.47-2.25-7.5c-2.34-3.32-6.28-2.75-6.28-2.75h-42.94
		L127.65,60.12L127.65,60.12z" />
		<polygon class="st0" points="211.47,45 229.83,45 219.43,60.24 201.24,60.24 211.47,45 	" />
		<polygon class="st0" points="192.86,73.11 210.51,73.11 187.39,107.6 169.4,107.6 192.86,73.11 	" />
		<polygon class="st0" points="237.45,45 296.41,45 285.54,60.24 227.22,60.24 237.45,45 	" />
		<polygon class="st0"
			points="258.69,73.11 247.59,88.73 226.1,88.73 213.11,107.6 195.12,107.6 218.59,73.11 258.69,73.11 	" />
	</g>
	<g>
		<path class="st1" d="M45.73,33.16c5.7-1.96,8.06-2.99,11.21,0.34c3.15,3.33,4.74,7.71,4.74,7.71s-2.7,2.7-7.08,4.29
		c-2.88,1.05-6.42,1.54-6.42,1.54s0.85-3.04,1.76-5.54c0.9-2.5,3.62-8.33,3.62-8.33l-2.78-0.32c0,0-3.23,4.34-5.79,10.33
		c-1.96,4.58-3.11,9.72-3.11,9.72s10.1-1.14,15.94-3.02c5.84-1.88,10.18-3.58,11.3-4.84c1.12-1.25,3.19-4.18,4.53-11.8
		c1.13-6.47-0.88-11.04-0.88-11.04s-0.73-0.34-3.75,1c-0.59,0.26-1.1,0.55-1.57,0.82c-1,0.58-2.26,1.85-2.94,2.76
		c0.95,2.03,1.9,5.23,1.17,8.07c-3.35-5.1-6.33-7.78-9.09-8.71c-3.99-1.33-6.09-0.68-14.18,2.96c-7.06,3.18-20.03,10.75-26.62,14.82
		c-1.67,1.03-2.8,1.73-2.8,1.73S39.61,35.27,45.73,33.16L45.73,33.16z" />
		<path class="st1" d="M58.8,25.33c0,0,2.35-2.44,6.8-4.89c5.13-2.84,12.78-5.55,12.78-5.55s-6.14,1.14-14.41,5.05
		c-3.09,1.46-7.09,4.76-7.09,4.76L58.8,25.33L58.8,25.33z" />
	</g>
</svg>